HIERARCHY
ROOT Hips
{
	OFFSET 0.000000 0.000000 0.000000
	CHANNELS 6 Xposition Yposition Zposition Yrotation Xrotation Zrotation
	JOINT Spine
	{
		OFFSET 0.000000 0.000000 -2.106134
		CHANNELS 6 Xposition Yposition Zposition Yrotation Xrotation Zrotation
		JOINT Spine1
		{
			OFFSET 0.000000 0.000003 -4.765754
			CHANNELS 6 Xposition Yposition Zposition Yrotation Xrotation Zrotation
			JOINT Neck
			{
				OFFSET 0.000000 0.000003 -5.279445
				CHANNELS 6 Xposition Yposition Zposition Yrotation Xrotation Zrotation
				JOINT Head
				{
					OFFSET 0.000000 0.513693 -3.981110
					CHANNELS 6 Xposition Yposition Zposition Yrotation Xrotation Zrotation
					End Site
					{
						OFFSET 0.000000 0.000003 -5.136913
					}
				}
			}
			JOINT LeftShoulder
			{
				OFFSET 1.025240 -0.112039 -4.307662
				CHANNELS 6 Xposition Yposition Zposition Yrotation Xrotation Zrotation
				JOINT LeftArm
				{
					OFFSET 2.971458 0.000000 0.000000
					CHANNELS 6 Xposition Yposition Zposition Yrotation Xrotation Zrotation
					JOINT LeftForeArm
					{
						OFFSET 7.705796 0.000000 0.000000
						CHANNELS 6 Xposition Yposition Zposition Yrotation Xrotation Zrotation
						JOINT LeftHand
						{
							OFFSET 6.891853 0.000000 0.000000
							CHANNELS 6 Xposition Yposition Zposition Yrotation Xrotation Zrotation
							End Site
							{
								OFFSET 3.852686 0.000000 0.000000
							}
						}
					}
				}
			}
			JOINT RightShoulder
			{
				OFFSET -1.027336 -0.112039 -4.307662
				CHANNELS 6 Xposition Yposition Zposition Yrotation Xrotation Zrotation
				JOINT RightArm
				{
					OFFSET -2.971458 0.000000 0.000000
					CHANNELS 6 Xposition Yposition Zposition Yrotation Xrotation Zrotation
					JOINT RightForeArm
					{
						OFFSET -7.705796 0.000000 0.000000
						CHANNELS 6 Xposition Yposition Zposition Yrotation Xrotation Zrotation
						JOINT RightHand
						{
							OFFSET -6.891853 0.000000 0.000000
							CHANNELS 6 Xposition Yposition Zposition Yrotation Xrotation Zrotation
							End Site
							{
								OFFSET -3.852686 0.000000 0.000000
							}
						}
					}
				}
			}
		}
	}
	JOINT LeftUpLeg
	{
		OFFSET 2.568456 0.000000 0.000000
		CHANNELS 6 Xposition Yposition Zposition Yrotation Xrotation Zrotation
		JOINT LeftLeg
		{
			OFFSET 0.000000 -0.000006 13.368048
			CHANNELS 6 Xposition Yposition Zposition Yrotation Xrotation Zrotation
			JOINT LeftFoot
			{
				OFFSET 0.000000 -0.000006 10.738913
				CHANNELS 6 Xposition Yposition Zposition Yrotation Xrotation Zrotation
				JOINT LeftToeBase
				{
					OFFSET 0.000000 3.852684 1.669498
					CHANNELS 6 Xposition Yposition Zposition Yrotation Xrotation Zrotation
					End Site
					{
						OFFSET 0.000000 1.027382 0.000000
					}
				}
			}
		}
	}
	JOINT RightUpLeg
	{
		OFFSET -2.568456 0.000000 0.000000
		CHANNELS 6 Xposition Yposition Zposition Yrotation Xrotation Zrotation
		JOINT RightLeg
		{
			OFFSET 0.000000 -0.000006 13.368048
			CHANNELS 6 Xposition Yposition Zposition Yrotation Xrotation Zrotation
			JOINT RightFoot
			{
				OFFSET 0.000000 -0.000006 10.738913
				CHANNELS 6 Xposition Yposition Zposition Yrotation Xrotation Zrotation
				JOINT RightToeBase
				{
					OFFSET 0.000000 3.852684 1.669498
					CHANNELS 6 Xposition Yposition Zposition Yrotation Xrotation Zrotation
					End Site
					{
						OFFSET 0.000000 1.027382 0.000000
					}
				}
			}
		}
	}
}
MOTION
Frames: 4
Frame Time: 0.041667
-0.685276 19.783928 -24.116194 -3.545025 4.588127 -85.036688 0.000003 0.000000 -2.106141 1.220711 -9.668673 1.115397 0.000002 0.000002 -4.765754 7.200414 0.949783 0.454022 -0.000003 0.000003 -5.279438 -18.298611 19.258348 15.593872 0.000005 0.513692 -3.981106 25.576116 -2.951766 24.133623 1.025239 -0.112039 -4.307652 12.709194 -5.724582 8.679334 2.971460 -0.000001 -0.000006 -4.533196 17.369513 0.173254 7.705801 0.000001 0.000003 12.605878 -17.841776 -4.722564 6.891852 0.000000 -0.000003 -43.500730 -12.405115 15.323034 -1.027338 -0.112040 -4.307652 -5.017635 12.432579 5.097414 -2.971453 -0.000000 -0.000005 45.064355 71.131086 -30.558765 -7.705799 -0.000001 -0.000004 -17.402892 -16.409338 -9.911785 -6.891864 -0.000003 -0.000004 11.487217 -14.219954 -7.445064 2.568457 0.000000 -0.000002 -6.985558 -6.191974 0.282939 0.000001 -0.000006 13.368049 -4.005878 11.848452 -1.771390 0.000001 -0.000005 10.738920 8.544449 -8.955420 -25.647871 0.000003 3.852684 1.669497 -0.000001 -0.000002 0.000001 -2.568456 0.000000 -0.000006 -7.586828 -10.897595 0.095567 0.000002 -0.000005 13.368045 5.792297 24.871265 7.381191 0.000004 -0.000005 10.738919 -1.046891 -21.549838 9.093862 0.000000 3.852685 1.669498 -0.000001 0.000000 -0.000006 
-0.676604 19.800665 -24.118488 -3.537925 4.562986 -85.018356 0.000004 0.000001 -2.106133 1.222062 -9.703041 1.125984 -0.000001 0.000003 -4.765751 7.219591 0.960985 0.458479 0.000004 0.000002 -5.279451 -18.338433 19.239721 15.582810 -0.000003 0.513693 -3.981122 25.651465 -2.972726 24.134337 1.025241 -0.112041 -4.307662 12.740235 -5.801196 8.693890 2.971457 -0.000001 0.000012 -4.507080 17.100183 0.067975 7.705798 -0.000002 -0.000007 12.492363 -17.672317 -4.661786 6.891852 0.000003 -0.000001 -43.364355 -12.307939 15.154168 -1.027332 -0.112041 -4.307655 -5.031026 12.429392 5.075901 -2.971450 -0.000002 0.000002 45.186544 70.984619 -30.393952 -7.705803 -0.000005 -0.000002 -17.318605 -16.310036 -9.987202 -6.891858 0.000002 -0.000005 11.402278 -14.113817 -7.519294 2.568458 0.000000 -0.000002 -6.925570 -6.155720 0.329569 -0.000006 -0.000006 13.368048 -4.026288 11.862877 -1.795518 -0.000004 -0.000004 10.738913 8.533708 -8.978996 -25.717592 -0.000002 3.852684 1.669499 0.000001 -0.000002 0.000002 -2.568455 0.000000 -0.000003 -7.566311 -10.801621 0.248249 0.000001 -0.000008 13.368044 5.821315 24.726311 7.422660 0.000002 -0.000004 10.738914 -1.015711 -21.523012 8.895624 0.000005 3.852684 1.669497 -0.000001 -0.000003 -0.000005 
-0.667948 19.814911 -24.121222 -3.515060 4.554713 -85.007209 -0.000000 0.000000 -2.106133 1.205124 -9.689021 1.142666 0.000000 0.000003 -4.765757 7.245345 0.928039 0.461818 0.000004 0.000003 -5.279453 -18.340129 19.256813 15.594133 -0.000005 0.513693 -3.981125 25.659692 -3.043200 24.133908 1.025239 -0.112041 -4.307671 12.762780 -5.763944 8.636509 2.971462 -0.000000 -0.000001 -4.456768 16.921582 0.073676 7.705794 0.000001 -0.000004 12.439567 -17.568365 -4.681775 6.891853 0.000000 -0.000004 -43.342434 -12.222641 15.108865 -1.027333 -0.112039 -4.307665 -5.026731 12.448817 5.076194 -2.971454 -0.000000 -0.000010 45.216156 70.884536 -30.305502 -7.705797 -0.000003 -0.000001 -17.333721 -16.220815 -10.012228 -6.891858 0.000001 0.000003 11.517434 -14.008423 -7.547491 2.568455 -0.000000 0.000003 -6.907377 -6.088304 0.375627 -0.000000 -0.000006 13.368050 -3.991620 11.811287 -1.807804 -0.000002 -0.000004 10.738916 8.508285 -8.953847 -25.750573 0.000003 3.852685 1.669499 0.000001 0.000001 -0.000004 -2.568457 0.000000 0.000003 -7.572533 -10.699721 0.504862 -0.000003 -0.000006 13.368047 5.815927 24.615081 7.368614 -0.000004 -0.000004 10.738922 -0.974213 -21.514737 8.743913 -0.000002 3.852685 1.669498 -0.000001 -0.000003 -0.000000 
-0.660172 19.830717 -24.123888 -3.513912 4.515797 -85.012612 -0.000000 0.000000 -2.106131 1.199435 -9.768332 1.127738 0.000004 0.000001 -4.765749 7.305865 0.962812 0.459213 0.000001 0.000003 -5.279447 -18.332834 19.387722 15.623450 0.000002 0.513692 -3.981110 25.675228 -3.205050 24.146945 1.025241 -0.112039 -4.307663 12.751745 -5.705447 8.791973 2.971460 0.000001 0.000001 -4.462335 16.717622 -0.081720 7.705796 0.000001 -0.000005 12.415275 -17.449363 -4.690002 6.891854 0.000002 -0.000001 -43.262982 -12.147875 15.019460 -1.027329 -0.112040 -4.307662 -5.016477 12.457661 5.063463 -2.971450 -0.000002 0.000003 45.504821 70.678436 -29.949399 -7.705797 -0.000001 0.000000 -17.298598 -16.216969 -10.059539 -6.891859 -0.000006 -0.000009 11.376830 -14.005647 -7.588338 2.568457 0.000000 0.000002 -6.846771 -6.045644 0.369023 0.000003 -0.000006 13.368052 -3.964003 11.751545 -1.746445 -0.000004 -0.000005 10.738916 8.536892 -8.915559 -25.806987 0.000001 3.852686 1.669498 -0.000002 -0.000003 -0.000004 -2.568457 0.000000 0.000003 -7.561089 -10.609091 0.677390 0.000004 -0.000006 13.368048 5.895583 24.476446 7.406357 0.000006 -0.000005 10.738916 -0.974053 -21.464305 8.587605 -0.000003 3.852685 1.669498 -0.000001 -0.000004 -0.000000 
